<svg width="113" height="116" viewBox="0 0 113 116" fill="none" xmlns="http://www.w3.org/2000/svg">
<g id="Discover">
<g clip-path="url(#clip0_133_8)">
<path d="M0 -7C0 -13.6274 5.37258 -19 12 -19H115C121.627 -19 127 -13.6274 127 -7V96C127 107.046 118.046 116 107 116H30C13.4315 116 0 102.569 0 86V-7Z" fill="white"/>
<g id="explore">
<mask id="mask0_133_8" style="mask-type:alpha" maskUnits="userSpaceOnUse" x="19" y="0" width="118" height="118">
<rect id="Bounding box" x="19" width="118" height="118" fill="#D9D9D9"/>
</mask>
<g mask="url(#mask0_133_8)">
<path id="explore_2" d="M41.2215 71.3225L71.0503 56.5256L84.9705 24.8178L55.1416 39.6147L41.2215 71.3225ZM63.096 52.2979C61.9691 52.2979 61.0245 51.8927 60.2622 51.0824C59.5 50.2721 59.1188 49.268 59.1188 48.0702C59.1188 46.8723 59.5 45.8682 60.2622 45.0579C61.0245 44.2476 61.9691 43.8425 63.096 43.8425C64.2228 43.8425 65.1674 44.2476 65.9297 45.0579C66.692 45.8682 67.0732 46.8723 67.0732 48.0702C67.0732 49.268 66.692 50.2721 65.9297 51.0824C65.1674 51.8927 64.2228 52.2979 63.096 52.2979ZM63.096 90.3472C57.5942 90.3472 52.4239 89.2374 47.585 87.0179C42.7461 84.7984 38.5369 81.7861 34.9575 77.9812C31.378 74.1762 28.5443 69.7019 26.4562 64.5582C24.3682 59.4145 23.3242 53.9185 23.3242 48.0702C23.3242 42.2218 24.3682 36.7258 26.4562 31.5821C28.5443 26.4384 31.378 21.9641 34.9575 18.1591C38.5369 14.3542 42.7461 11.342 47.585 9.12241C52.4239 6.90286 57.5942 5.79309 63.096 5.79309C68.5977 5.79309 73.7681 6.90286 78.607 9.12241C83.4459 11.342 87.655 14.3542 91.2345 18.1591C94.814 21.9641 97.6477 26.4384 99.7357 31.5821C101.824 36.7258 102.868 42.2218 102.868 48.0702C102.868 53.9185 101.824 59.4145 99.7357 64.5582C97.6477 69.7019 94.814 74.1762 91.2345 77.9812C87.655 81.7861 83.4459 84.7984 78.607 87.0179C73.7681 89.2374 68.5977 90.3472 63.096 90.3472Z" fill="#157C61"/>
</g>
</g>
</g>
</g>
<defs>
<clipPath id="clip0_133_8">
<path d="M0 -7C0 -13.6274 5.37258 -19 12 -19H115C121.627 -19 127 -13.6274 127 -7V96C127 107.046 118.046 116 107 116H30C13.4315 116 0 102.569 0 86V-7Z" fill="white"/>
</clipPath>
</defs>
</svg>
