<svg width="18" height="18" viewBox="0 0 18 18" fill="none" xmlns="http://www.w3.org/2000/svg">
<rect width="18" height="18" fill="#D8D8D8"/>
<g id="Trench Kid ">
<g clip-path="url(#clip0_1_83)">
<rect x="-576" y="-1895" width="1440" height="5922" rx="8" fill="white"/>
<g id="TOP STORIES">
<g id="DISCOVER">
<g id="CHARITY SLIDES">
<g id="SLIDE 2" filter="url(#filter0_d_1_83)">
<rect x="-416.891" y="-366" width="544.39" height="526" rx="8" fill="white"/>
<g id="Burundi">
<g id="Raised">
<g id="happy">
<path id="Vector" d="M8.89675 17.1225C13.3087 17.1225 16.8853 13.5459 16.8853 9.13393C16.8853 4.72198 13.3087 1.14539 8.89675 1.14539C4.4848 1.14539 0.908203 4.72198 0.908203 9.13393C0.908203 13.5459 4.4848 17.1225 8.89675 17.1225Z" stroke="black" stroke-width="1.09843" stroke-linecap="round" stroke-linejoin="round"/>
<path id="Vector_2" d="M5.70117 11.5305C6.42982 12.5006 7.5899 13.1282 8.89659 13.1282C10.2033 13.1282 11.3634 12.5006 12.092 11.5305" stroke="black" stroke-width="1.09843" stroke-linecap="round" stroke-linejoin="round"/>
<path id="Vector_3" d="M11.293 5.93848C11.293 5.93848 10.4941 6.73733 10.4941 7.53619C11.0933 6.73733 12.2916 6.73733 12.8907 7.53619" stroke="black" stroke-width="1.09843" stroke-linecap="round" stroke-linejoin="round"/>
<path id="Vector_4" d="M6.50103 5.93848C6.50103 5.93848 7.29988 6.73733 7.29988 7.53619C6.70074 6.73733 5.50246 6.73733 4.90332 7.53619" stroke="black" stroke-width="1.09843" stroke-linecap="round" stroke-linejoin="round"/>
</g>
</g>
</g>
</g>
</g>
</g>
</g>
</g>
</g>
<defs>
<filter id="filter0_d_1_83" x="-422.891" y="-368" width="556.39" height="538" filterUnits="userSpaceOnUse" color-interpolation-filters="sRGB">
<feFlood flood-opacity="0" result="BackgroundImageFix"/>
<feColorMatrix in="SourceAlpha" type="matrix" values="0 0 0 0 0 0 0 0 0 0 0 0 0 0 0 0 0 0 127 0" result="hardAlpha"/>
<feOffset dy="4"/>
<feGaussianBlur stdDeviation="3"/>
<feComposite in2="hardAlpha" operator="out"/>
<feColorMatrix type="matrix" values="0 0 0 0 0 0 0 0 0 0 0 0 0 0 0 0 0 0 0.04 0"/>
<feBlend mode="normal" in2="BackgroundImageFix" result="effect1_dropShadow_1_83"/>
<feBlend mode="normal" in="SourceGraphic" in2="effect1_dropShadow_1_83" result="shape"/>
</filter>
<clipPath id="clip0_1_83">
<rect x="-576" y="-1895" width="1440" height="5922" rx="8" fill="white"/>
</clipPath>
</defs>
</svg>
