<svg width="151" height="43" viewBox="0 0 151 43" fill="none" xmlns="http://www.w3.org/2000/svg">
<path d="M1.37659 6.816C1.26459 6.64 1.16059 6.4 1.06459 6.096C0.968594 5.792 0.920594 5.472 0.920594 5.136C0.920594 4.512 1.05659 4.064 1.32859 3.792C1.61659 3.52 1.98459 3.384 2.43259 3.384H12.8966C13.0086 3.56 13.1126 3.8 13.2086 4.104C13.3046 4.408 13.3526 4.728 13.3526 5.064C13.3526 5.688 13.2086 6.136 12.9206 6.408C12.6486 6.68 12.2886 6.816 11.8406 6.816H9.17659V17.904C9.00059 17.952 8.72059 18 8.33659 18.048C7.96859 18.096 7.60059 18.12 7.23259 18.12C6.86459 18.12 6.53659 18.088 6.24859 18.024C5.97659 17.976 5.74459 17.88 5.55259 17.736C5.36059 17.592 5.21659 17.392 5.12059 17.136C5.02459 16.88 4.97659 16.544 4.97659 16.128V6.816H1.37659ZM25.8725 17.976C25.7125 18.024 25.4565 18.072 25.1045 18.12C24.7685 18.168 24.4165 18.192 24.0485 18.192C23.6965 18.192 23.3765 18.168 23.0885 18.12C22.8165 18.072 22.5845 17.976 22.3925 17.832C22.2005 17.688 22.0485 17.496 21.9365 17.256C21.8405 17 21.7925 16.672 21.7925 16.272V10.944C21.7925 10.288 21.6245 9.832 21.2885 9.576C20.9685 9.304 20.5685 9.168 20.0885 9.168C19.7685 9.168 19.4645 9.208 19.1765 9.288C18.8885 9.368 18.6565 9.464 18.4805 9.576V17.976C18.3205 18.024 18.0645 18.072 17.7125 18.12C17.3765 18.168 17.0245 18.192 16.6565 18.192C16.3045 18.192 15.9845 18.168 15.6965 18.12C15.4245 18.072 15.1925 17.976 15.0005 17.832C14.8085 17.688 14.6565 17.496 14.5445 17.256C14.4485 17 14.4005 16.672 14.4005 16.272V2.352C14.5765 2.32 14.8325 2.28 15.1685 2.232C15.5205 2.168 15.8725 2.136 16.2245 2.136C16.5765 2.136 16.8885 2.16 17.1605 2.208C17.4485 2.256 17.6885 2.352 17.8805 2.496C18.0725 2.64 18.2165 2.84 18.3125 3.096C18.4245 3.336 18.4805 3.656 18.4805 4.056V6.408C18.6885 6.328 19.0005 6.24 19.4165 6.144C19.8485 6.032 20.3205 5.976 20.8325 5.976C22.4165 5.976 23.6485 6.376 24.5285 7.176C25.4245 7.96 25.8725 9.136 25.8725 10.704V17.976ZM33.8396 18.384C32.8956 18.384 32.0156 18.256 31.1996 18C30.3996 17.728 29.6956 17.328 29.0876 16.8C28.4956 16.272 28.0236 15.608 27.6716 14.808C27.3356 14.008 27.1676 13.072 27.1676 12C27.1676 10.944 27.3356 10.04 27.6716 9.288C28.0236 8.52 28.4796 7.896 29.0396 7.416C29.5996 6.92 30.2396 6.56 30.9596 6.336C31.6796 6.096 32.4156 5.976 33.1676 5.976C34.0156 5.976 34.7836 6.104 35.4716 6.36C36.1756 6.616 36.7756 6.968 37.2716 7.416C37.7836 7.864 38.1756 8.4 38.4476 9.024C38.7356 9.648 38.8796 10.328 38.8796 11.064C38.8796 11.608 38.7276 12.024 38.4236 12.312C38.1196 12.6 37.6956 12.784 37.1516 12.864L31.2236 13.752C31.3996 14.28 31.7596 14.68 32.3036 14.952C32.8476 15.208 33.4716 15.336 34.1756 15.336C34.8316 15.336 35.4476 15.256 36.0236 15.096C36.6156 14.92 37.0956 14.72 37.4636 14.496C37.7196 14.656 37.9356 14.88 38.1116 15.168C38.2876 15.456 38.3756 15.76 38.3756 16.08C38.3756 16.8 38.0396 17.336 37.3676 17.688C36.8556 17.96 36.2796 18.144 35.6396 18.24C34.9996 18.336 34.3996 18.384 33.8396 18.384ZM33.1676 8.952C32.7836 8.952 32.4476 9.016 32.1596 9.144C31.8876 9.272 31.6636 9.44 31.4876 9.648C31.3116 9.84 31.1756 10.064 31.0796 10.32C30.9996 10.56 30.9516 10.808 30.9356 11.064L35.0396 10.392C34.9916 10.072 34.8156 9.752 34.5116 9.432C34.2076 9.112 33.7596 8.952 33.1676 8.952ZM43.8482 6.816C43.7362 6.64 43.6322 6.4 43.5362 6.096C43.4402 5.792 43.3922 5.472 43.3922 5.136C43.3922 4.512 43.5282 4.064 43.8002 3.792C44.0882 3.52 44.4562 3.384 44.9042 3.384H55.3682C55.4802 3.56 55.5842 3.8 55.6802 4.104C55.7762 4.408 55.8242 4.728 55.8242 5.064C55.8242 5.688 55.6802 6.136 55.3922 6.408C55.1202 6.68 54.7602 6.816 54.3122 6.816H51.6482V17.904C51.4722 17.952 51.1922 18 50.8082 18.048C50.4402 18.096 50.0722 18.12 49.7042 18.12C49.3362 18.12 49.0082 18.088 48.7202 18.024C48.4482 17.976 48.2162 17.88 48.0242 17.736C47.8322 17.592 47.6882 17.392 47.5922 17.136C47.4962 16.88 47.4482 16.544 47.4482 16.128V6.816H43.8482ZM59.9432 17.976C59.7832 18.024 59.5272 18.072 59.1752 18.12C58.8392 18.168 58.4872 18.192 58.1192 18.192C57.7672 18.192 57.4472 18.168 57.1592 18.12C56.8872 18.072 56.6552 17.976 56.4632 17.832C56.2712 17.688 56.1192 17.496 56.0072 17.256C55.9112 17 55.8632 16.672 55.8632 16.272V9.072C55.8632 8.704 55.9272 8.392 56.0552 8.136C56.1992 7.864 56.3992 7.624 56.6552 7.416C56.9112 7.208 57.2232 7.024 57.5912 6.864C57.9752 6.688 58.3832 6.536 58.8152 6.408C59.2472 6.28 59.6952 6.184 60.1592 6.12C60.6232 6.04 61.0872 6 61.5512 6C62.3192 6 62.9272 6.152 63.3752 6.456C63.8232 6.744 64.0472 7.224 64.0472 7.896C64.0472 8.12 64.0152 8.344 63.9512 8.568C63.8872 8.776 63.8072 8.968 63.7112 9.144C63.3752 9.144 63.0312 9.16 62.6792 9.192C62.3272 9.224 61.9832 9.272 61.6472 9.336C61.3112 9.4 60.9912 9.472 60.6872 9.552C60.3992 9.616 60.1512 9.696 59.9432 9.792V17.976ZM70.733 18.384C69.789 18.384 68.909 18.256 68.093 18C67.293 17.728 66.589 17.328 65.981 16.8C65.389 16.272 64.917 15.608 64.565 14.808C64.229 14.008 64.061 13.072 64.061 12C64.061 10.944 64.229 10.04 64.565 9.288C64.917 8.52 65.373 7.896 65.933 7.416C66.493 6.92 67.133 6.56 67.853 6.336C68.573 6.096 69.309 5.976 70.061 5.976C70.909 5.976 71.677 6.104 72.365 6.36C73.069 6.616 73.669 6.968 74.165 7.416C74.677 7.864 75.069 8.4 75.341 9.024C75.629 9.648 75.773 10.328 75.773 11.064C75.773 11.608 75.621 12.024 75.317 12.312C75.013 12.6 74.589 12.784 74.045 12.864L68.117 13.752C68.293 14.28 68.653 14.68 69.197 14.952C69.741 15.208 70.365 15.336 71.069 15.336C71.725 15.336 72.341 15.256 72.917 15.096C73.509 14.92 73.989 14.72 74.357 14.496C74.613 14.656 74.829 14.88 75.005 15.168C75.181 15.456 75.269 15.76 75.269 16.08C75.269 16.8 74.933 17.336 74.261 17.688C73.749 17.96 73.173 18.144 72.533 18.24C71.893 18.336 71.293 18.384 70.733 18.384ZM70.061 8.952C69.677 8.952 69.341 9.016 69.053 9.144C68.781 9.272 68.557 9.44 68.381 9.648C68.205 9.84 68.069 10.064 67.973 10.32C67.893 10.56 67.845 10.808 67.829 11.064L71.933 10.392C71.885 10.072 71.709 9.752 71.405 9.432C71.101 9.112 70.653 8.952 70.061 8.952ZM84.4089 10.608C84.4089 10.112 84.2649 9.752 83.9769 9.528C83.7049 9.288 83.3289 9.168 82.8489 9.168C82.5289 9.168 82.2089 9.208 81.8889 9.288C81.5849 9.368 81.3209 9.488 81.0969 9.648V17.976C80.9369 18.024 80.6809 18.072 80.3289 18.12C79.9929 18.168 79.6409 18.192 79.2729 18.192C78.9209 18.192 78.6009 18.168 78.3129 18.12C78.0409 18.072 77.8089 17.976 77.6169 17.832C77.4249 17.688 77.2729 17.496 77.1609 17.256C77.0649 17 77.0169 16.672 77.0169 16.272V9.072C77.0169 8.64 77.1049 8.288 77.2809 8.016C77.4729 7.744 77.7289 7.496 78.0489 7.272C78.5929 6.888 79.2729 6.576 80.0889 6.336C80.9209 6.096 81.8409 5.976 82.8489 5.976C84.6569 5.976 86.0489 6.376 87.0249 7.176C88.0009 7.96 88.4889 9.056 88.4889 10.464V17.976C88.3289 18.024 88.0729 18.072 87.7209 18.12C87.3849 18.168 87.0329 18.192 86.6649 18.192C86.3129 18.192 85.9929 18.168 85.7049 18.12C85.4329 18.072 85.2009 17.976 85.0089 17.832C84.8169 17.688 84.6649 17.496 84.5529 17.256C84.4569 17 84.4089 16.672 84.4089 16.272V10.608ZM96.8651 9.192C96.4651 9.192 96.0811 9.256 95.7131 9.384C95.3611 9.512 95.0491 9.704 94.7771 9.96C94.5211 10.2 94.3131 10.504 94.1531 10.872C93.9931 11.24 93.9131 11.672 93.9131 12.168C93.9131 13.16 94.1931 13.904 94.7531 14.4C95.3291 14.896 96.0251 15.144 96.8411 15.144C97.3211 15.144 97.7371 15.088 98.0891 14.976C98.4411 14.864 98.7531 14.744 99.0251 14.616C99.3451 14.84 99.5851 15.088 99.7451 15.36C99.9051 15.616 99.9851 15.928 99.9851 16.296C99.9851 16.952 99.6731 17.464 99.0491 17.832C98.4251 18.184 97.5611 18.36 96.4571 18.36C95.4491 18.36 94.5371 18.216 93.7211 17.928C92.9051 17.624 92.2011 17.208 91.6091 16.68C91.0331 16.136 90.5851 15.488 90.2651 14.736C89.9451 13.984 89.7851 13.152 89.7851 12.24C89.7851 11.184 89.9531 10.264 90.2891 9.48C90.6411 8.68 91.1131 8.024 91.7051 7.512C92.2971 7 92.9771 6.616 93.7451 6.36C94.5291 6.104 95.3531 5.976 96.2171 5.976C97.3691 5.976 98.2571 6.184 98.8811 6.6C99.5051 7.016 99.8171 7.552 99.8171 8.208C99.8171 8.512 99.7451 8.8 99.6011 9.072C99.4571 9.328 99.2891 9.552 99.0971 9.744C98.8251 9.616 98.4971 9.496 98.1131 9.384C97.7291 9.256 97.3131 9.192 96.8651 9.192ZM112.831 17.976C112.671 18.024 112.415 18.072 112.063 18.12C111.727 18.168 111.375 18.192 111.007 18.192C110.655 18.192 110.335 18.168 110.047 18.12C109.775 18.072 109.543 17.976 109.351 17.832C109.159 17.688 109.007 17.496 108.895 17.256C108.799 17 108.751 16.672 108.751 16.272V10.944C108.751 10.288 108.583 9.832 108.247 9.576C107.927 9.304 107.527 9.168 107.047 9.168C106.727 9.168 106.423 9.208 106.135 9.288C105.847 9.368 105.615 9.464 105.439 9.576V17.976C105.279 18.024 105.023 18.072 104.671 18.12C104.335 18.168 103.983 18.192 103.615 18.192C103.263 18.192 102.943 18.168 102.655 18.12C102.383 18.072 102.151 17.976 101.959 17.832C101.767 17.688 101.615 17.496 101.503 17.256C101.407 17 101.359 16.672 101.359 16.272V2.352C101.535 2.32 101.791 2.28 102.127 2.232C102.479 2.168 102.831 2.136 103.183 2.136C103.535 2.136 103.847 2.16 104.119 2.208C104.407 2.256 104.647 2.352 104.839 2.496C105.031 2.64 105.175 2.84 105.271 3.096C105.383 3.336 105.439 3.656 105.439 4.056V6.408C105.647 6.328 105.959 6.24 106.375 6.144C106.807 6.032 107.279 5.976 107.791 5.976C109.375 5.976 110.607 6.376 111.487 7.176C112.383 7.96 112.831 9.136 112.831 10.704V17.976ZM123.251 12.6V17.904C123.075 17.952 122.795 18 122.411 18.048C122.027 18.096 121.651 18.12 121.283 18.12C120.915 18.12 120.587 18.088 120.299 18.024C120.027 17.976 119.795 17.88 119.603 17.736C119.411 17.592 119.267 17.392 119.171 17.136C119.075 16.88 119.027 16.544 119.027 16.128V3.456C119.203 3.424 119.483 3.384 119.867 3.336C120.251 3.272 120.619 3.24 120.971 3.24C121.339 3.24 121.659 3.272 121.931 3.336C122.219 3.384 122.459 3.48 122.651 3.624C122.843 3.768 122.987 3.968 123.083 4.224C123.179 4.48 123.227 4.816 123.227 5.232V9.048L128.219 3.312C129.307 3.312 130.083 3.52 130.547 3.936C131.027 4.336 131.267 4.816 131.267 5.376C131.267 5.792 131.163 6.184 130.955 6.552C130.747 6.92 130.411 7.336 129.947 7.8L126.947 10.8C127.347 11.248 127.763 11.712 128.195 12.192C128.643 12.672 129.075 13.144 129.491 13.608C129.923 14.056 130.331 14.488 130.715 14.904C131.115 15.32 131.459 15.68 131.747 15.984C131.747 16.336 131.683 16.648 131.555 16.92C131.427 17.192 131.251 17.424 131.027 17.616C130.819 17.808 130.579 17.952 130.307 18.048C130.035 18.144 129.747 18.192 129.443 18.192C128.787 18.192 128.251 18.032 127.835 17.712C127.419 17.376 127.019 16.984 126.635 16.536L123.251 12.6ZM132.547 3.096C132.547 2.488 132.747 1.976 133.147 1.56C133.563 1.144 134.107 0.935999 134.779 0.935999C135.451 0.935999 135.987 1.144 136.387 1.56C136.803 1.976 137.011 2.488 137.011 3.096C137.011 3.704 136.803 4.216 136.387 4.632C135.987 5.048 135.451 5.256 134.779 5.256C134.107 5.256 133.563 5.048 133.147 4.632C132.747 4.216 132.547 3.704 132.547 3.096ZM136.819 17.976C136.643 18.008 136.379 18.048 136.027 18.096C135.691 18.16 135.347 18.192 134.995 18.192C134.643 18.192 134.323 18.168 134.035 18.12C133.763 18.072 133.531 17.976 133.339 17.832C133.147 17.688 132.995 17.496 132.883 17.256C132.787 17 132.739 16.672 132.739 16.272V6.504C132.915 6.472 133.171 6.432 133.507 6.384C133.859 6.32 134.211 6.288 134.563 6.288C134.915 6.288 135.227 6.312 135.499 6.36C135.787 6.408 136.027 6.504 136.219 6.648C136.411 6.792 136.555 6.992 136.651 7.248C136.763 7.488 136.819 7.808 136.819 8.208V17.976ZM138.193 12.168C138.193 11.112 138.353 10.2 138.673 9.432C138.993 8.648 139.433 8 139.993 7.488C140.569 6.976 141.233 6.6 141.985 6.36C142.753 6.104 143.577 5.976 144.457 5.976C144.777 5.976 145.089 6.008 145.393 6.072C145.697 6.12 145.945 6.184 146.137 6.264V2.376C146.297 2.328 146.553 2.28 146.905 2.232C147.257 2.168 147.617 2.136 147.985 2.136C148.337 2.136 148.649 2.16 148.921 2.208C149.209 2.256 149.449 2.352 149.641 2.496C149.833 2.64 149.977 2.84 150.073 3.096C150.169 3.336 150.217 3.656 150.217 4.056V15.432C150.217 16.184 149.865 16.784 149.161 17.232C148.697 17.536 148.097 17.8 147.361 18.024C146.625 18.264 145.777 18.384 144.817 18.384C143.777 18.384 142.841 18.24 142.009 17.952C141.193 17.664 140.497 17.248 139.921 16.704C139.361 16.16 138.929 15.512 138.625 14.76C138.337 13.992 138.193 13.128 138.193 12.168ZM145.009 9.168C144.145 9.168 143.481 9.416 143.017 9.912C142.553 10.408 142.321 11.16 142.321 12.168C142.321 13.16 142.537 13.912 142.969 14.424C143.401 14.92 144.025 15.168 144.841 15.168C145.129 15.168 145.385 15.128 145.609 15.048C145.849 14.952 146.033 14.848 146.161 14.736V9.456C145.841 9.264 145.457 9.168 145.009 9.168Z" fill="#157C61"/>
<path d="M45.9805 30.2C46.6525 30.2 47.1645 30.048 47.5165 29.744C47.8845 29.424 48.0685 28.944 48.0685 28.304C48.0685 27.696 47.8765 27.232 47.4925 26.912C47.1245 26.576 46.5805 26.408 45.8605 26.408C45.6045 26.408 45.3885 26.416 45.2125 26.432C45.0525 26.432 44.8845 26.448 44.7085 26.48V30.2H45.9805ZM44.7325 37.904C44.5565 37.952 44.2765 38 43.8925 38.048C43.5245 38.096 43.1565 38.12 42.7885 38.12C42.4205 38.12 42.0925 38.088 41.8045 38.024C41.5325 37.976 41.3005 37.88 41.1085 37.736C40.9165 37.592 40.7725 37.392 40.6765 37.136C40.5805 36.88 40.5325 36.544 40.5325 36.128V24.824C40.5325 24.488 40.6205 24.232 40.7965 24.056C40.9885 23.864 41.2445 23.712 41.5645 23.6C42.1085 23.408 42.7245 23.272 43.4125 23.192C44.1165 23.096 44.8205 23.048 45.5245 23.048C47.7325 23.048 49.4205 23.52 50.5885 24.464C51.7565 25.408 52.3405 26.688 52.3405 28.304C52.3405 29.088 52.2125 29.8 51.9565 30.44C51.7165 31.064 51.3485 31.608 50.8525 32.072C50.3725 32.52 49.7565 32.872 49.0045 33.128C48.2685 33.368 47.4125 33.488 46.4365 33.488H44.7325V37.904ZM57.0571 37.976C56.8971 38.024 56.6411 38.072 56.2891 38.12C55.9531 38.168 55.6011 38.192 55.2331 38.192C54.8811 38.192 54.5611 38.168 54.2731 38.12C54.0011 38.072 53.7691 37.976 53.5771 37.832C53.3851 37.688 53.2331 37.496 53.1211 37.256C53.0251 37 52.9771 36.672 52.9771 36.272V29.072C52.9771 28.704 53.0411 28.392 53.1691 28.136C53.3131 27.864 53.5131 27.624 53.7691 27.416C54.0251 27.208 54.3371 27.024 54.7051 26.864C55.0891 26.688 55.4971 26.536 55.9291 26.408C56.3611 26.28 56.8091 26.184 57.2731 26.12C57.7371 26.04 58.2011 26 58.6651 26C59.4331 26 60.0411 26.152 60.4891 26.456C60.9371 26.744 61.1611 27.224 61.1611 27.896C61.1611 28.12 61.1291 28.344 61.0651 28.568C61.0011 28.776 60.9211 28.968 60.8251 29.144C60.4891 29.144 60.1451 29.16 59.7931 29.192C59.4411 29.224 59.0971 29.272 58.7611 29.336C58.4251 29.4 58.1051 29.472 57.8011 29.552C57.5131 29.616 57.2651 29.696 57.0571 29.792V37.976ZM73.7509 32.168C73.7509 33.16 73.5989 34.048 73.2949 34.832C72.9909 35.6 72.5589 36.248 71.9989 36.776C71.4549 37.304 70.7989 37.704 70.0309 37.976C69.2629 38.248 68.4069 38.384 67.4629 38.384C66.5189 38.384 65.6629 38.24 64.8949 37.952C64.1269 37.664 63.4629 37.256 62.9029 36.728C62.3589 36.184 61.9349 35.528 61.6309 34.76C61.3269 33.992 61.1749 33.128 61.1749 32.168C61.1749 31.224 61.3269 30.368 61.6309 29.6C61.9349 28.832 62.3589 28.184 62.9029 27.656C63.4629 27.112 64.1269 26.696 64.8949 26.408C65.6629 26.12 66.5189 25.976 67.4629 25.976C68.4069 25.976 69.2629 26.128 70.0309 26.432C70.7989 26.72 71.4549 27.136 71.9989 27.68C72.5589 28.208 72.9909 28.856 73.2949 29.624C73.5989 30.392 73.7509 31.24 73.7509 32.168ZM65.3509 32.168C65.3509 33.144 65.5349 33.896 65.9029 34.424C66.2869 34.936 66.8149 35.192 67.4869 35.192C68.1589 35.192 68.6709 34.928 69.0229 34.4C69.3909 33.872 69.5749 33.128 69.5749 32.168C69.5749 31.208 69.3909 30.472 69.0229 29.96C68.6549 29.432 68.1349 29.168 67.4629 29.168C66.7909 29.168 66.2709 29.432 65.9029 29.96C65.5349 30.472 65.3509 31.208 65.3509 32.168ZM75.0454 23.096C75.0454 22.488 75.2454 21.976 75.6454 21.56C76.0614 21.144 76.6054 20.936 77.2774 20.936C77.9494 20.936 78.4854 21.144 78.8854 21.56C79.3014 21.976 79.5094 22.488 79.5094 23.096C79.5094 23.704 79.3014 24.216 78.8854 24.632C78.4854 25.048 77.9494 25.256 77.2774 25.256C76.6054 25.256 76.0614 25.048 75.6454 24.632C75.2454 24.216 75.0454 23.704 75.0454 23.096ZM74.2294 39.632C74.5814 39.408 74.8374 39.096 74.9974 38.696C75.1574 38.312 75.2374 37.88 75.2374 37.4V26.504C75.4134 26.472 75.6694 26.432 76.0054 26.384C76.3574 26.32 76.7094 26.288 77.0614 26.288C77.4134 26.288 77.7254 26.312 77.9974 26.36C78.2854 26.408 78.5254 26.504 78.7174 26.648C78.9094 26.792 79.0534 26.992 79.1494 27.248C79.2614 27.488 79.3174 27.808 79.3174 28.208V37.784C79.3174 38.456 79.2374 39.064 79.0774 39.608C78.9174 40.152 78.6854 40.616 78.3814 41C78.0934 41.4 77.7334 41.704 77.3014 41.912C76.8854 42.136 76.4134 42.248 75.8854 42.248C75.1814 42.248 74.6294 42.032 74.2294 41.6C73.8294 41.184 73.6214 40.656 73.6054 40.016L74.2294 39.632ZM87.3601 38.384C86.4161 38.384 85.5361 38.256 84.7201 38C83.9201 37.728 83.2161 37.328 82.6081 36.8C82.0161 36.272 81.5441 35.608 81.1921 34.808C80.8561 34.008 80.6881 33.072 80.6881 32C80.6881 30.944 80.8561 30.04 81.1921 29.288C81.5441 28.52 82.0001 27.896 82.5601 27.416C83.1201 26.92 83.7601 26.56 84.4801 26.336C85.2001 26.096 85.9361 25.976 86.6881 25.976C87.5361 25.976 88.3041 26.104 88.9921 26.36C89.6961 26.616 90.2961 26.968 90.7921 27.416C91.3041 27.864 91.6961 28.4 91.9681 29.024C92.2561 29.648 92.4001 30.328 92.4001 31.064C92.4001 31.608 92.2481 32.024 91.9441 32.312C91.6401 32.6 91.2161 32.784 90.6721 32.864L84.7441 33.752C84.9201 34.28 85.2801 34.68 85.8241 34.952C86.3681 35.208 86.9921 35.336 87.6961 35.336C88.3521 35.336 88.9681 35.256 89.5441 35.096C90.1361 34.92 90.6161 34.72 90.9841 34.496C91.2401 34.656 91.4561 34.88 91.6321 35.168C91.8081 35.456 91.8961 35.76 91.8961 36.08C91.8961 36.8 91.5601 37.336 90.8881 37.688C90.3761 37.96 89.8001 38.144 89.1601 38.24C88.5201 38.336 87.9201 38.384 87.3601 38.384ZM86.6881 28.952C86.3041 28.952 85.9681 29.016 85.6801 29.144C85.4081 29.272 85.1841 29.44 85.0081 29.648C84.8321 29.84 84.6961 30.064 84.6001 30.32C84.5201 30.56 84.4721 30.808 84.4561 31.064L88.5601 30.392C88.5121 30.072 88.3361 29.752 88.0321 29.432C87.7281 29.112 87.2801 28.952 86.6881 28.952ZM100.22 29.192C99.8199 29.192 99.4359 29.256 99.0679 29.384C98.7159 29.512 98.4039 29.704 98.1319 29.96C97.8759 30.2 97.6679 30.504 97.5079 30.872C97.3479 31.24 97.2679 31.672 97.2679 32.168C97.2679 33.16 97.5479 33.904 98.1079 34.4C98.6839 34.896 99.3799 35.144 100.196 35.144C100.676 35.144 101.092 35.088 101.444 34.976C101.796 34.864 102.108 34.744 102.38 34.616C102.7 34.84 102.94 35.088 103.1 35.36C103.26 35.616 103.34 35.928 103.34 36.296C103.34 36.952 103.028 37.464 102.404 37.832C101.78 38.184 100.916 38.36 99.8119 38.36C98.8039 38.36 97.8919 38.216 97.0759 37.928C96.2599 37.624 95.5559 37.208 94.9639 36.68C94.3879 36.136 93.9399 35.488 93.6199 34.736C93.2999 33.984 93.1399 33.152 93.1399 32.24C93.1399 31.184 93.3079 30.264 93.6439 29.48C93.9959 28.68 94.4679 28.024 95.0599 27.512C95.6519 27 96.3319 26.616 97.0999 26.36C97.8839 26.104 98.7079 25.976 99.5719 25.976C100.724 25.976 101.612 26.184 102.236 26.6C102.86 27.016 103.172 27.552 103.172 28.208C103.172 28.512 103.1 28.8 102.956 29.072C102.812 29.328 102.644 29.552 102.452 29.744C102.18 29.616 101.852 29.496 101.468 29.384C101.084 29.256 100.668 29.192 100.22 29.192ZM108.746 33.992C108.746 34.408 108.874 34.704 109.13 34.88C109.402 35.056 109.778 35.144 110.258 35.144C110.498 35.144 110.746 35.128 111.002 35.096C111.258 35.048 111.482 34.992 111.674 34.928C111.818 35.104 111.938 35.304 112.034 35.528C112.146 35.736 112.202 35.992 112.202 36.296C112.202 36.904 111.97 37.4 111.506 37.784C111.058 38.168 110.258 38.36 109.106 38.36C107.698 38.36 106.61 38.04 105.842 37.4C105.09 36.76 104.714 35.72 104.714 34.28V24.008C104.89 23.96 105.138 23.912 105.458 23.864C105.794 23.8 106.146 23.768 106.514 23.768C107.218 23.768 107.762 23.896 108.146 24.152C108.546 24.392 108.746 24.912 108.746 25.712V27.248H111.89C111.986 27.424 112.074 27.648 112.154 27.92C112.25 28.176 112.298 28.464 112.298 28.784C112.298 29.344 112.17 29.752 111.914 30.008C111.674 30.248 111.346 30.368 110.93 30.368H108.746V33.992Z" fill="#FFBD59"/>
</svg>
